<svg width="228" height="84" viewBox="0 0 228 84" fill="none" xmlns="http://www.w3.org/2000/svg">
<g filter="url(#filter0_d_657_542)">
<path d="M32.9623 14.99L22.593 34.9994L10.449 16.0146L32.9623 14.99Z" fill="#ECECEC"/>
<path d="M11.3368 16.4747L32.1199 15.5289L22.5475 34.0004L11.3368 16.4747Z" stroke="#D2D2D2"/>
</g>
<g filter="url(#filter1_d_657_542)">
<path d="M44 74L18.0192 29L69.9808 29L44 74Z" fill="#ECECEC"/>
<path d="M69.1147 29.5L44 73L18.8853 29.5L69.1147 29.5Z" stroke="#434343"/>
</g>
<g filter="url(#filter2_d_657_542)">
<path d="M44 71L20.6173 30.5L67.3827 30.5L44 71Z" fill="#E3E0E0"/>
<path d="M66.5167 31L44 70L21.4833 31L66.5167 31Z" stroke="url(#paint0_linear_657_542)"/>
</g>
<g filter="url(#filter3_d_657_542)">
<circle cx="32" cy="41" r="10" fill="#D9D9D9"/>
<circle cx="32" cy="41" r="9.5" stroke="#363636"/>
</g>
<circle cx="32" cy="42" r="9.5" fill="#E3E0E0" stroke="#373737"/>
<g filter="url(#filter4_d_657_542)">
<circle cx="56" cy="41" r="10" fill="#D9D9D9"/>
<circle cx="56" cy="41" r="9.5" stroke="#383838"/>
</g>
<circle cx="56" cy="42" r="9.5" fill="#E3E0E0" stroke="#373737"/>
<path d="M8.80519 15.2419L34.8402 14.0566L22.8492 37.1962L8.80519 15.2419Z" fill="#ECECEC" stroke="#3C3C3C"/>
<path d="M51.8567 14.4624L77.8371 14.316L64.9737 36.8888L51.8567 14.4624Z" fill="#ECECEC" stroke="#444444"/>
<g filter="url(#filter5_d_657_542)">
<path d="M76.032 15.4169L64.8739 34.9974L53.4958 15.5439L76.032 15.4169Z" fill="#ECECEC"/>
<path d="M54.3647 16.0391L75.1688 15.9218L64.8683 33.9974L54.3647 16.0391Z" stroke="#D2D2D2"/>
</g>
<g filter="url(#filter6_d_657_542)">
<path d="M90.9346 44.9609C91.9502 44.9609 92.8633 45.0781 93.6738 45.3125C94.4844 45.5469 95.2021 45.8691 95.8271 46.2793C96.4521 46.6895 96.9844 47.1777 97.4238 47.7441C97.8633 48.3008 98.2246 48.9111 98.5078 49.5752C98.791 50.2295 98.9961 50.9229 99.123 51.6553C99.2598 52.3877 99.3281 53.125 99.3281 53.8672C99.3281 54.7949 99.2354 55.7031 99.0498 56.5918C98.8643 57.4805 98.5664 58.3154 98.1562 59.0967C97.7461 59.8682 97.209 60.5664 96.5449 61.1914C95.8906 61.8164 95.0898 62.334 94.1426 62.7441C93.6152 62.9785 93.1025 63.1738 92.6045 63.3301C92.1064 63.4863 91.6084 63.6279 91.1104 63.7549C90.6221 63.8721 90.124 63.9893 89.6162 64.1064C89.1084 64.2236 88.5811 64.3604 88.0342 64.5166C87.4971 64.6631 86.9355 64.8438 86.3496 65.0586C85.7637 65.2734 85.1387 65.542 84.4746 65.8643C83.4199 66.3818 82.541 66.8848 81.8379 67.373C81.1348 67.8711 80.5488 68.3154 80.0801 68.7061C79.6211 69.0967 79.2549 69.4092 78.9814 69.6436C78.708 69.8877 78.4785 70.0098 78.293 70.0098C78.0977 70.0098 78 69.9121 78 69.7168C78 69.5898 78.0781 69.4482 78.2344 69.292C78.4004 69.1455 78.6152 68.96 78.8789 68.7354C79.1426 68.5205 79.4355 68.2568 79.7578 67.9443C80.0801 67.6318 80.4023 67.251 80.7246 66.8018C81.1543 66.2158 81.5107 65.5615 81.7939 64.8389C82.0771 64.1162 82.2627 63.3398 82.3506 62.5098C82.3701 62.2949 82.3896 62.0117 82.4092 61.6602C82.4385 61.2988 82.458 60.8936 82.4678 60.4443C82.4873 59.9854 82.502 59.4922 82.5117 58.9648C82.5215 58.4277 82.5264 57.8711 82.5264 57.2949C82.5264 56.3965 82.5117 55.4785 82.4824 54.541C82.4531 53.5938 82.4043 52.7002 82.3359 51.8604C82.2773 51.0205 82.1943 50.2686 82.0869 49.6045C81.9795 48.9307 81.8477 48.4131 81.6914 48.0518C81.5547 47.7393 81.3838 47.4805 81.1787 47.2754C80.9834 47.0703 80.7783 46.8994 80.5635 46.7627C80.3584 46.626 80.1484 46.5186 79.9336 46.4404C79.7285 46.3525 79.5381 46.2793 79.3623 46.2207C79.1963 46.1523 79.0596 46.0889 78.9521 46.0303C78.8545 45.9619 78.8057 45.8838 78.8057 45.7959C78.8057 45.6396 78.9375 45.5615 79.2012 45.5615C79.377 45.5615 79.5674 45.5762 79.7725 45.6055C79.9873 45.625 80.2314 45.6494 80.5049 45.6787C80.7783 45.708 81.0859 45.7373 81.4277 45.7666C81.7695 45.7861 82.165 45.7959 82.6143 45.7959C83.3369 45.7959 84.0645 45.752 84.7969 45.6641C85.5293 45.5762 86.2471 45.4834 86.9502 45.3857C87.6631 45.2783 88.3516 45.1807 89.0156 45.0928C89.6895 45.0049 90.3291 44.9609 90.9346 44.9609ZM88.7959 45.957C87.7705 45.957 86.96 46.0693 86.3643 46.2939C85.7686 46.5186 85.4121 46.8115 85.2949 47.1729C85.2168 47.417 85.1533 47.7832 85.1045 48.2715C85.0654 48.7598 85.0459 49.3262 85.0459 49.9707C85.0459 50.7031 85.0605 51.5039 85.0898 52.373C85.1289 53.2324 85.1729 54.0771 85.2217 54.9072C85.2803 55.7275 85.3389 56.499 85.3975 57.2217C85.4658 57.9346 85.5293 58.5156 85.5879 58.9648C85.6465 59.4238 85.7148 59.8291 85.793 60.1807C85.8809 60.5322 85.9688 60.8447 86.0566 61.1182C86.1543 61.3916 86.2617 61.6309 86.3789 61.8359C86.4961 62.041 86.623 62.2266 86.7598 62.3926C86.9062 62.5684 87.082 62.7197 87.2871 62.8467C87.4922 62.9736 87.707 63.0762 87.9316 63.1543C88.166 63.2324 88.4004 63.291 88.6348 63.3301C88.8789 63.3594 89.1133 63.374 89.3379 63.374C90.0898 63.374 90.7539 63.2373 91.3301 62.9639C91.916 62.6807 92.4238 62.3096 92.8535 61.8506C93.293 61.3818 93.6641 60.8447 93.9668 60.2393C94.2695 59.624 94.5137 58.9795 94.6992 58.3057C94.8848 57.6318 95.0166 56.9531 95.0947 56.2695C95.1826 55.5762 95.2266 54.917 95.2266 54.292C95.2266 53.2275 95.124 52.2852 94.9189 51.4648C94.7236 50.6348 94.46 49.9121 94.1279 49.2969C93.7959 48.6719 93.4102 48.1494 92.9707 47.7295C92.541 47.3096 92.0869 46.9678 91.6084 46.7041C91.1299 46.4404 90.6465 46.25 90.1582 46.1328C89.6797 46.0156 89.2256 45.957 88.7959 45.957ZM117.316 72.1338C117.434 72.1338 117.565 72.1387 117.712 72.1484C117.868 72.1582 118.015 72.1826 118.151 72.2217C118.288 72.2705 118.4 72.3389 118.488 72.4268C118.586 72.5146 118.635 72.6367 118.635 72.793C118.635 72.959 118.552 73.1152 118.386 73.2617C118.229 73.4082 117.912 73.4863 117.434 73.4961C116.965 73.5156 116.442 73.5303 115.866 73.54C115.3 73.5498 114.67 73.5596 113.977 73.5693C113.293 73.5889 112.536 73.6133 111.706 73.6426C110.886 73.6816 109.987 73.7305 109.011 73.7891C108.532 73.8184 107.976 73.8574 107.341 73.9062C106.706 73.9648 106.066 74.0186 105.422 74.0674C104.777 74.126 104.162 74.1748 103.576 74.2139C102.99 74.2529 102.512 74.2725 102.141 74.2725C102.062 74.2725 101.975 74.2676 101.877 74.2578C101.779 74.2578 101.687 74.2432 101.599 74.2139C101.511 74.1846 101.438 74.1406 101.379 74.082C101.32 74.0332 101.291 73.9648 101.291 73.877C101.291 73.7402 101.354 73.6279 101.481 73.54C101.608 73.4619 101.828 73.3838 102.141 73.3057C102.443 73.2373 102.868 73.1689 103.415 73.1006C103.972 73.0322 104.567 72.9639 105.202 72.8955C105.837 72.8369 106.477 72.7783 107.121 72.7197C107.775 72.6709 108.352 72.627 108.85 72.5879C109.299 72.5586 109.782 72.5244 110.3 72.4854C110.817 72.4463 111.345 72.4072 111.882 72.3682C112.419 72.3389 112.951 72.3096 113.479 72.2803C114.016 72.251 114.523 72.2266 115.002 72.207C115.48 72.1875 115.915 72.168 116.306 72.1484C116.706 72.1387 117.043 72.1338 117.316 72.1338ZM121.33 42.3828C121.691 42.3926 122.072 42.4365 122.473 42.5146C122.873 42.5928 123.322 42.6855 123.82 42.793C124.318 42.9004 124.87 43.0078 125.476 43.1152C126.091 43.2227 126.789 43.3057 127.57 43.3643C127.98 43.3936 128.337 43.418 128.64 43.4375C128.952 43.457 129.235 43.4668 129.489 43.4668C129.782 43.4668 130.051 43.4619 130.295 43.4521C130.539 43.4326 130.778 43.4131 131.013 43.3936C131.257 43.3643 131.511 43.3447 131.774 43.335C132.038 43.3154 132.336 43.3057 132.668 43.3057C133.137 43.3057 133.439 43.3496 133.576 43.4375C133.713 43.5254 133.781 43.6426 133.781 43.7891C133.781 43.9453 133.713 44.0576 133.576 44.126C133.449 44.1846 133.269 44.2236 133.034 44.2432C132.849 44.2627 132.634 44.2822 132.39 44.3018C132.155 44.3115 131.926 44.3311 131.701 44.3604C131.516 44.3896 131.33 44.4336 131.145 44.4922C130.969 44.541 130.803 44.624 130.646 44.7412C130.49 44.8486 130.354 45.0049 130.236 45.21C130.119 45.4053 130.031 45.6641 129.973 45.9863C129.885 46.4746 129.792 47.1191 129.694 47.9199C129.597 48.7207 129.504 49.5898 129.416 50.5273C129.328 51.4648 129.245 52.4365 129.167 53.4424C129.089 54.4482 129.021 55.4053 128.962 56.3135C128.903 57.2217 128.854 58.0469 128.815 58.7891C128.786 59.5312 128.771 60.1025 128.771 60.5029C128.771 61.1377 128.854 61.5967 129.021 61.8799C129.196 62.1533 129.45 62.3438 129.782 62.4512C129.88 62.4805 130.021 62.5098 130.207 62.5391C130.393 62.5684 130.603 62.5928 130.837 62.6123C131.081 62.6318 131.34 62.6514 131.613 62.6709C131.896 62.6807 132.18 62.6855 132.463 62.6855C133.293 62.6855 133.986 62.6172 134.543 62.4805C135.1 62.3438 135.544 62.1338 135.876 61.8506C136.218 61.5674 136.457 61.2158 136.594 60.7959C136.74 60.376 136.813 59.8779 136.813 59.3018C136.813 58.7939 136.774 58.2959 136.696 57.8076C136.618 57.3096 136.53 56.8506 136.433 56.4307C136.335 56.0107 136.247 55.6348 136.169 55.3027C136.091 54.9707 136.052 54.7119 136.052 54.5264C136.052 54.4189 136.071 54.3311 136.11 54.2627C136.149 54.1846 136.213 54.1455 136.301 54.1455C136.418 54.1455 136.516 54.1992 136.594 54.3066C136.672 54.4043 136.745 54.5264 136.813 54.6729C136.931 55.0146 137.033 55.3418 137.121 55.6543C137.219 55.957 137.316 56.2744 137.414 56.6064C137.512 56.9385 137.619 57.2949 137.736 57.6758C137.854 58.0566 137.995 58.4863 138.161 58.9648C138.522 60.0098 138.83 60.8691 139.084 61.543C139.348 62.207 139.479 62.6904 139.479 62.9932C139.479 63.1396 139.382 63.2568 139.187 63.3447C138.991 63.4326 138.62 63.4766 138.073 63.4766C137.585 63.4766 136.931 63.4766 136.11 63.4766C135.29 63.4766 134.401 63.4863 133.444 63.5059C132.487 63.5156 131.506 63.5352 130.5 63.5645C129.504 63.5938 128.586 63.6328 127.746 63.6816C127.062 63.7305 126.472 63.7891 125.974 63.8574C125.476 63.916 125.017 63.9746 124.597 64.0332C124.187 64.0918 123.791 64.1455 123.41 64.1943C123.039 64.2334 122.634 64.2529 122.194 64.2529C121.892 64.2529 121.687 64.2236 121.579 64.165C121.472 64.0967 121.418 63.9941 121.418 63.8574C121.418 63.7402 121.472 63.6572 121.579 63.6084C121.696 63.5498 121.833 63.5059 121.989 63.4766C122.038 63.4668 122.146 63.4521 122.312 63.4326C122.478 63.4131 122.663 63.3838 122.868 63.3447C123.083 63.3057 123.308 63.2568 123.542 63.1982C123.776 63.1396 123.986 63.0713 124.172 62.9932C124.631 62.7979 124.948 62.4805 125.124 62.041C125.3 61.6016 125.412 61.0498 125.461 60.3857C125.5 59.917 125.524 59.3408 125.534 58.6572C125.554 57.9736 125.563 57.2363 125.563 56.4453C125.563 55.5664 125.559 54.6631 125.549 53.7354C125.539 52.8076 125.52 51.9238 125.49 51.084C125.471 50.2344 125.446 49.4629 125.417 48.7695C125.397 48.0664 125.373 47.4951 125.344 47.0557C125.314 46.6162 125.266 46.2354 125.197 45.9131C125.139 45.5811 125.061 45.2979 124.963 45.0635C124.875 44.8291 124.768 44.6387 124.641 44.4922C124.523 44.3359 124.392 44.2041 124.245 44.0967C124.108 43.999 123.947 43.9111 123.762 43.833C123.576 43.7549 123.381 43.6914 123.176 43.6426C122.98 43.584 122.78 43.5352 122.575 43.4961C122.38 43.457 122.194 43.4229 122.019 43.3936C121.765 43.3545 121.555 43.3154 121.389 43.2764C121.223 43.2373 121.091 43.1934 120.993 43.1445C120.905 43.0957 120.842 43.042 120.803 42.9834C120.773 42.9248 120.759 42.8613 120.759 42.793C120.759 42.6172 120.812 42.5049 120.92 42.4561C121.037 42.4072 121.174 42.3828 121.33 42.3828ZM144.489 54.4385C144.128 54.4385 143.786 54.3701 143.464 54.2334C143.151 54.0967 142.878 53.8916 142.644 53.6182C142.409 53.3447 142.224 53.0029 142.087 52.5928C141.95 52.1826 141.882 51.6992 141.882 51.1426C141.882 50.5371 141.965 49.9463 142.131 49.3701C142.307 48.7842 142.575 48.2666 142.937 47.8174C143.298 47.3584 143.757 46.9922 144.313 46.7188C144.88 46.4453 145.559 46.3086 146.35 46.3086C147.004 46.3086 147.58 46.3965 148.078 46.5723C148.586 46.7383 149.03 46.9678 149.411 47.2607C149.792 47.5439 150.114 47.876 150.378 48.2568C150.651 48.6377 150.881 49.0381 151.066 49.458C151.252 49.8682 151.403 50.2881 151.521 50.7178C151.647 51.1377 151.755 51.5381 151.843 51.9189C151.892 52.1338 151.95 52.4414 152.019 52.8418C152.097 53.2324 152.18 53.6865 152.268 54.2041C152.355 54.7217 152.448 55.2783 152.546 55.874C152.644 56.46 152.741 57.0557 152.839 57.6611C152.937 58.2666 153.029 58.8574 153.117 59.4336C153.215 60 153.303 60.5225 153.381 61.001C153.459 61.4697 153.522 61.875 153.571 62.2168C153.63 62.5488 153.674 62.7783 153.703 62.9053C153.762 63.208 153.825 63.5156 153.894 63.8281C153.972 64.1406 154.064 64.4287 154.172 64.6924C154.289 64.9463 154.431 65.1562 154.597 65.3223C154.763 65.4883 154.973 65.5713 155.227 65.5713C155.373 65.5713 155.5 65.5371 155.607 65.4688C155.715 65.4004 155.798 65.3076 155.856 65.1904C155.925 65.0732 155.974 64.9414 156.003 64.7949C156.032 64.6484 156.047 64.4971 156.047 64.3408C156.047 64.1553 156.042 63.9697 156.032 63.7842C156.022 63.5889 156.018 63.4229 156.018 63.2861C156.018 63.1396 156.037 63.0127 156.076 62.9053C156.115 62.7979 156.193 62.7441 156.311 62.7441C156.418 62.7441 156.501 62.8076 156.56 62.9346C156.628 63.0518 156.677 63.1934 156.706 63.3594C156.745 63.5156 156.77 63.6768 156.779 63.8428C156.789 63.999 156.794 64.1162 156.794 64.1943C156.794 64.5361 156.765 64.9219 156.706 65.3516C156.647 65.7812 156.525 66.1963 156.34 66.5967C156.164 67.0068 155.871 67.3438 155.461 67.6074C155.051 67.8711 154.577 68.0029 154.04 68.0029C153.571 68.0029 153.166 67.9346 152.824 67.7979C152.492 67.6611 152.204 67.4902 151.96 67.2852C151.726 67.0801 151.525 66.8604 151.359 66.626C151.203 66.3916 151.076 66.1719 150.979 65.9668C150.705 65.4395 150.495 64.8633 150.349 64.2383C150.212 63.6035 150.1 62.998 150.012 62.4219C149.865 62.666 149.641 62.9688 149.338 63.3301C149.045 63.6914 148.679 64.0381 148.239 64.3701C147.8 64.7021 147.292 64.9854 146.716 65.2197C146.14 65.4541 145.5 65.5713 144.797 65.5713C144.016 65.5713 143.347 65.459 142.79 65.2344C142.243 65.0195 141.794 64.7266 141.442 64.3555C141.091 63.9746 140.832 63.5352 140.666 63.0371C140.5 62.5293 140.417 61.9922 140.417 61.4258C140.417 60.8203 140.529 60.21 140.754 59.5947C140.979 58.9795 141.345 58.4229 141.853 57.9248C142.37 57.4268 143.039 57.0215 143.859 56.709C144.689 56.3965 145.7 56.2402 146.892 56.2402C147.165 56.2402 147.429 56.2549 147.683 56.2842C147.946 56.3037 148.181 56.3281 148.386 56.3574C148.601 56.3867 148.781 56.416 148.928 56.4453C149.084 56.4746 149.196 56.4941 149.265 56.5039C149.206 55.6641 149.133 54.8242 149.045 53.9844C149.006 53.6328 148.962 53.2617 148.913 52.8711C148.874 52.4805 148.83 52.0898 148.781 51.6992C148.732 51.2988 148.679 50.9082 148.62 50.5273C148.562 50.1465 148.498 49.79 148.43 49.458C148.273 48.7061 147.966 48.1104 147.507 47.6709C147.058 47.2217 146.481 46.9971 145.778 46.9971C145.397 46.9971 145.061 47.0654 144.768 47.2021C144.484 47.3389 144.24 47.5146 144.035 47.7295C143.84 47.9443 143.693 48.1885 143.596 48.4619C143.498 48.7256 143.449 48.9893 143.449 49.2529C143.449 49.5361 143.518 49.7754 143.654 49.9707C143.791 50.1562 143.957 50.3223 144.152 50.4688C144.357 50.6152 144.577 50.7568 144.812 50.8936C145.046 51.0205 145.261 51.1719 145.456 51.3477C145.661 51.5137 145.832 51.7188 145.969 51.9629C146.105 52.1973 146.174 52.4951 146.174 52.8564C146.174 53.335 146.008 53.7207 145.676 54.0137C145.354 54.2969 144.958 54.4385 144.489 54.4385ZM149.382 57.4121C149.313 57.3828 149.191 57.3486 149.016 57.3096C148.85 57.2607 148.649 57.2168 148.415 57.1777C148.181 57.1289 147.927 57.0898 147.653 57.0605C147.39 57.0312 147.126 57.0166 146.862 57.0166C146.345 57.0166 145.861 57.0898 145.412 57.2363C144.973 57.3828 144.592 57.6025 144.27 57.8955C143.947 58.1787 143.693 58.54 143.508 58.9795C143.322 59.4092 143.229 59.9072 143.229 60.4736C143.229 60.9912 143.312 61.4209 143.479 61.7627C143.654 62.0947 143.874 62.3584 144.138 62.5537C144.411 62.749 144.709 62.8857 145.031 62.9639C145.363 63.042 145.686 63.0811 145.998 63.0811C146.496 63.0811 146.97 63.0029 147.419 62.8467C147.868 62.6904 148.264 62.5098 148.605 62.3047C148.947 62.0996 149.226 61.8994 149.44 61.7041C149.655 61.5088 149.787 61.377 149.836 61.3086C149.768 60.6543 149.704 60.0586 149.646 59.5215C149.616 59.2871 149.587 59.0576 149.558 58.833C149.538 58.6084 149.514 58.3984 149.484 58.2031C149.465 58.0078 149.445 57.8418 149.426 57.7051C149.406 57.5684 149.392 57.4707 149.382 57.4121ZM160.236 46.1328C160.314 46.1328 160.393 46.2598 160.471 46.5137C160.549 46.7578 160.627 47.0801 160.705 47.4805C160.783 47.8809 160.861 48.3447 160.939 48.8721C161.018 49.3896 161.096 49.917 161.174 50.4541L161.701 54.1455C161.75 53.8232 161.833 53.4521 161.95 53.0322C162.077 52.6123 162.243 52.1777 162.448 51.7285C162.653 51.2793 162.902 50.8398 163.195 50.4102C163.488 49.9805 163.825 49.5947 164.206 49.2529C164.597 48.9111 165.031 48.6377 165.51 48.4326C165.998 48.2178 166.54 48.1104 167.136 48.1104C167.868 48.1104 168.503 48.252 169.04 48.5352C169.577 48.8086 170.021 49.1943 170.373 49.6924C170.725 50.1807 170.983 50.7666 171.149 51.4502C171.315 52.1338 171.398 52.8809 171.398 53.6914C171.398 54.4238 171.354 55.1611 171.267 55.9033C171.188 56.6357 171.101 57.3584 171.003 58.0713C170.915 58.7842 170.827 59.4727 170.739 60.1367C170.661 60.8008 170.622 61.4209 170.622 61.9971C170.622 62.3389 170.651 62.6367 170.71 62.8906C170.769 63.1445 170.856 63.3789 170.974 63.5938C171.11 63.7988 171.276 63.9795 171.472 64.1357C171.677 64.2822 171.867 64.4238 172.043 64.5605C172.229 64.6875 172.385 64.8193 172.512 64.9561C172.648 65.083 172.717 65.2197 172.717 65.3662C172.717 65.4541 172.692 65.5273 172.644 65.5859C172.595 65.6543 172.512 65.6885 172.395 65.6885C172.219 65.6885 172.023 65.6201 171.809 65.4834C171.604 65.3564 171.345 65.1953 171.032 65C170.729 64.7949 170.363 64.5801 169.934 64.3555C169.504 64.1211 168.981 63.9062 168.366 63.7109C167.907 63.5547 167.443 63.4326 166.975 63.3447C166.516 63.2568 165.979 63.1982 165.363 63.1689C165.021 63.1396 164.851 63.042 164.851 62.876C164.851 62.6904 164.963 62.5977 165.188 62.5977C165.324 62.5977 165.515 62.5977 165.759 62.5977C166.003 62.5977 166.252 62.5879 166.506 62.5684C166.896 62.5391 167.219 62.4219 167.473 62.2168C167.727 62.002 167.917 61.6113 168.044 61.0449C168.083 60.8203 168.122 60.5371 168.161 60.1953C168.2 59.8438 168.234 59.4727 168.264 59.082C168.293 58.6816 168.317 58.2764 168.337 57.8662C168.356 57.4561 168.366 57.0654 168.366 56.6943C168.366 56.3623 168.361 55.9814 168.352 55.5518C168.342 55.1123 168.308 54.6582 168.249 54.1895C168.2 53.7207 168.117 53.2617 168 52.8125C167.893 52.3633 167.731 51.9629 167.517 51.6113C167.302 51.2598 167.028 50.9766 166.696 50.7617C166.364 50.5371 165.959 50.4248 165.48 50.4248C165.07 50.4248 164.694 50.5273 164.353 50.7324C164.021 50.9375 163.723 51.2256 163.459 51.5967C163.195 51.958 162.971 52.3877 162.785 52.8857C162.6 53.3838 162.458 53.9307 162.36 54.5264C162.253 55.1318 162.18 55.7568 162.141 56.4014C162.111 57.0361 162.097 57.6709 162.097 58.3057C162.097 58.8428 162.116 59.3604 162.155 59.8584C162.194 60.3467 162.248 60.8008 162.316 61.2207C162.385 61.6309 162.468 61.9971 162.565 62.3193C162.663 62.6416 162.775 62.8955 162.902 63.0811C163.088 63.335 163.288 63.5254 163.503 63.6523C163.718 63.7793 163.898 63.8672 164.045 63.916C164.24 63.9746 164.377 64.0283 164.455 64.0771C164.543 64.1162 164.587 64.1748 164.587 64.2529C164.587 64.3115 164.538 64.3652 164.44 64.4141C164.353 64.4629 164.201 64.4873 163.986 64.4873C163.781 64.4873 163.557 64.4727 163.312 64.4434C163.068 64.4043 162.814 64.3652 162.551 64.3262C162.287 64.2871 162.014 64.2529 161.73 64.2236C161.447 64.1846 161.169 64.165 160.896 64.165C160.622 64.165 160.344 64.1748 160.061 64.1943C159.777 64.2139 159.504 64.2334 159.24 64.2529C158.986 64.2725 158.752 64.292 158.537 64.3115C158.322 64.3311 158.151 64.3408 158.024 64.3408C157.644 64.3408 157.453 64.2188 157.453 63.9746C157.453 63.8867 157.482 63.8135 157.541 63.7549C157.609 63.6865 157.727 63.6426 157.893 63.623C158.029 63.6133 158.151 63.6035 158.259 63.5938C158.366 63.584 158.474 63.5791 158.581 63.5791C158.698 63.5693 158.815 63.5596 158.933 63.5498C159.06 63.54 159.206 63.5254 159.372 63.5059C159.685 63.457 159.895 63.3447 160.002 63.1689C160.119 62.9834 160.178 62.7344 160.178 62.4219C160.178 61.8848 160.129 61.2305 160.031 60.459C159.943 59.6875 159.821 58.8379 159.665 57.9102C159.509 56.9824 159.318 56.001 159.094 54.9658C158.879 53.9209 158.649 52.8564 158.405 51.7725C158.288 51.2158 158.151 50.8008 157.995 50.5273C157.849 50.2539 157.634 50.1172 157.351 50.1172C157.204 50.1172 157.053 50.1465 156.896 50.2051C156.74 50.2539 156.584 50.3125 156.428 50.3809C156.281 50.4395 156.14 50.498 156.003 50.5566C155.866 50.6055 155.739 50.6299 155.622 50.6299C155.437 50.6299 155.344 50.5518 155.344 50.3955C155.344 50.2686 155.393 50.1807 155.49 50.1318C155.598 50.0732 155.71 50.0195 155.827 49.9707C156.101 49.8633 156.394 49.7266 156.706 49.5605C157.028 49.3945 157.375 49.1699 157.746 48.8867C158.107 48.6035 158.43 48.3008 158.713 47.9785C158.996 47.6562 159.24 47.3584 159.445 47.085C159.65 46.8115 159.816 46.5869 159.943 46.4111C160.07 46.2256 160.168 46.1328 160.236 46.1328ZM186.149 35.2637C186.228 35.2637 186.276 35.3369 186.296 35.4834C186.325 35.6201 186.34 35.8105 186.34 36.0547C186.34 36.8164 186.33 37.6416 186.311 38.5303C186.301 39.4092 186.286 40.332 186.267 41.2988C186.247 42.2559 186.223 43.2422 186.193 44.2578C186.174 45.2637 186.149 46.2695 186.12 47.2754C186.091 48.6914 186.062 50.0732 186.032 51.4209C186.003 52.7686 185.979 54.0088 185.959 55.1416C185.939 56.2646 185.92 57.2461 185.9 58.0859C185.891 58.9258 185.886 59.5508 185.886 59.9609C185.886 60.4297 185.925 60.8154 186.003 61.1182C186.081 61.4209 186.184 61.6699 186.311 61.8652C186.438 62.0508 186.584 62.1924 186.75 62.29C186.926 62.3877 187.106 62.4707 187.292 62.5391C187.536 62.627 187.771 62.6904 187.995 62.7295C188.229 62.7588 188.435 62.7832 188.61 62.8027C188.786 62.8223 188.923 62.8516 189.021 62.8906C189.128 62.9297 189.182 63.0029 189.182 63.1104C189.182 63.2568 189.074 63.3496 188.859 63.3887C188.654 63.4277 188.435 63.4473 188.2 63.4473C187.868 63.4473 187.409 63.4229 186.823 63.374C186.237 63.3154 185.563 63.2861 184.802 63.2861C184.431 63.2861 184.06 63.3057 183.688 63.3447C183.317 63.3838 182.922 63.4277 182.502 63.4766C182.092 63.5156 181.638 63.5547 181.14 63.5938C180.651 63.6328 180.095 63.6523 179.47 63.6523C178.591 63.6523 177.766 63.5449 176.994 63.3301C176.223 63.1152 175.549 62.7783 174.973 62.3193C174.396 61.8506 173.942 61.25 173.61 60.5176C173.278 59.7754 173.112 58.8818 173.112 57.8369C173.112 56.9092 173.278 56.084 173.61 55.3613C173.952 54.6289 174.411 54.0137 174.987 53.5156C175.573 53.0176 176.252 52.6367 177.023 52.373C177.805 52.1094 178.63 51.9775 179.499 51.9775C180.407 51.9775 181.164 52.0508 181.77 52.1973C182.385 52.3438 182.878 52.4902 183.249 52.6367C183.249 51.6992 183.239 50.7471 183.22 49.7803C183.2 48.8037 183.176 47.8564 183.146 46.9385C183.127 46.0107 183.103 45.1367 183.073 44.3164C183.054 43.4961 183.029 42.7734 183 42.1484C182.98 41.5234 182.961 41.0156 182.941 40.625C182.922 40.2344 182.912 40.0098 182.912 39.9512C182.902 39.8047 182.888 39.6631 182.868 39.5264C182.858 39.3799 182.834 39.2529 182.795 39.1455C182.766 39.0283 182.717 38.9404 182.648 38.8818C182.58 38.8135 182.487 38.7793 182.37 38.7793C182.224 38.7793 182.058 38.8135 181.872 38.8818C181.687 38.9404 181.496 39.0088 181.301 39.0869C181.115 39.1553 180.93 39.2236 180.744 39.292C180.559 39.3506 180.393 39.3799 180.246 39.3799C180.158 39.3799 180.075 39.3652 179.997 39.3359C179.919 39.2969 179.88 39.2236 179.88 39.1162C179.88 38.9893 179.924 38.8867 180.012 38.8086C180.109 38.7305 180.246 38.6523 180.422 38.5742C180.549 38.5156 180.695 38.4619 180.861 38.4131C181.027 38.3545 181.228 38.2764 181.462 38.1787C181.706 38.0713 181.994 37.9395 182.326 37.7832C182.658 37.6172 183.054 37.3975 183.513 37.124C183.962 36.8604 184.338 36.6162 184.641 36.3916C184.953 36.167 185.207 35.9717 185.402 35.8057C185.607 35.6396 185.764 35.5078 185.871 35.4102C185.988 35.3125 186.081 35.2637 186.149 35.2637ZM183.366 59.5068C183.366 59.0771 183.361 58.6133 183.352 58.1152C183.352 57.6074 183.347 57.0947 183.337 56.5771C183.337 56.0498 183.327 55.5273 183.308 55.0098C183.298 54.4922 183.288 54.0039 183.278 53.5449C182.976 53.3887 182.604 53.2617 182.165 53.1641C181.726 53.0566 181.237 53.0029 180.7 53.0029C180.046 53.0029 179.47 53.1152 178.972 53.3398C178.474 53.5645 178.054 53.8818 177.712 54.292C177.37 54.7021 177.111 55.1953 176.936 55.7715C176.76 56.3477 176.672 56.9922 176.672 57.7051C176.672 58.4668 176.755 59.1602 176.921 59.7852C177.087 60.4004 177.331 60.9277 177.653 61.3672C177.985 61.8066 178.4 62.1484 178.898 62.3926C179.396 62.627 179.978 62.7441 180.642 62.7441C181.208 62.7441 181.672 62.6562 182.033 62.4805C182.404 62.2949 182.688 62.0654 182.883 61.792C183.078 61.5186 183.205 61.1914 183.264 60.8105C183.332 60.4297 183.366 59.9951 183.366 59.5068ZM198.41 31.25C198.957 31.25 199.484 31.3379 199.992 31.5137C200.5 31.6797 200.949 31.9531 201.34 32.334C201.74 32.7051 202.058 33.1836 202.292 33.7695C202.526 34.3555 202.644 35.0635 202.644 35.8936C202.644 36.6357 202.551 37.3096 202.365 37.915C202.18 38.5205 201.921 39.0381 201.589 39.4678C201.257 39.8975 200.861 40.2295 200.402 40.4639C199.943 40.6982 199.44 40.8154 198.894 40.8154C198.532 40.8154 198.21 40.7617 197.927 40.6543C197.644 40.5371 197.404 40.3857 197.209 40.2002C197.014 40.0049 196.862 39.7803 196.755 39.5264C196.657 39.2627 196.608 38.9844 196.608 38.6914C196.608 38.4863 196.633 38.2764 196.682 38.0615C196.73 37.8467 196.823 37.6416 196.96 37.4463C197.097 37.251 197.282 37.0605 197.517 36.875C197.761 36.6895 198.068 36.5234 198.439 36.377C199.162 36.0938 199.689 35.7471 200.021 35.3369C200.363 34.9268 200.534 34.4336 200.534 33.8574C200.534 33.6621 200.5 33.4424 200.432 33.1982C200.363 32.9541 200.241 32.7295 200.065 32.5244C199.89 32.3096 199.646 32.1289 199.333 31.9824C199.021 31.8359 198.62 31.7627 198.132 31.7627C197.526 31.7627 197.004 31.9238 196.564 32.2461C196.135 32.5586 195.769 32.9785 195.466 33.5059C195.163 34.0234 194.919 34.6191 194.733 35.293C194.548 35.957 194.406 36.6406 194.309 37.3438C194.211 38.0371 194.143 38.7207 194.104 39.3945C194.074 40.0586 194.06 40.6543 194.06 41.1816C194.06 41.5625 194.064 41.9434 194.074 42.3242C194.094 42.6953 194.152 43.0322 194.25 43.335C194.348 43.6279 194.499 43.8672 194.704 44.0527C194.909 44.2383 195.202 44.3311 195.583 44.3311C195.886 44.3311 196.193 44.3018 196.506 44.2432C196.828 44.1846 197.131 44.126 197.414 44.0674C197.707 43.999 197.976 43.9355 198.22 43.877C198.464 43.8184 198.669 43.7891 198.835 43.7891C199.108 43.7891 199.245 43.8916 199.245 44.0967C199.245 44.2334 199.182 44.3408 199.055 44.4189C198.938 44.4971 198.723 44.5654 198.41 44.624C198.264 44.6533 198.098 44.6826 197.912 44.7119C197.736 44.7314 197.531 44.7559 197.297 44.7852C197.062 44.8145 196.799 44.8535 196.506 44.9023C196.213 44.9512 195.876 45.0195 195.495 45.1074C195.241 45.166 195.036 45.2441 194.88 45.3418C194.733 45.4297 194.621 45.5322 194.543 45.6494C194.445 45.8057 194.382 46.001 194.353 46.2354C194.333 46.46 194.323 46.7139 194.323 46.9971C194.323 47.0752 194.328 47.3682 194.338 47.876C194.357 48.3838 194.377 49.0283 194.396 49.8096C194.426 50.5908 194.455 51.4746 194.484 52.4609C194.514 53.4473 194.543 54.458 194.572 55.4932C194.611 56.5283 194.646 57.5537 194.675 58.5693C194.714 59.5752 194.748 60.4932 194.777 61.3232C194.807 62.1533 194.831 62.8613 194.851 63.4473C194.88 64.0234 194.904 64.3994 194.924 64.5752C194.973 65.1611 195.085 65.6445 195.261 66.0254C195.446 66.4062 195.764 66.665 196.213 66.8018C196.369 66.8506 196.511 66.8848 196.638 66.9043C196.774 66.9336 196.911 66.9531 197.048 66.9629C197.194 66.9824 197.346 67.002 197.502 67.0215C197.668 67.041 197.858 67.0654 198.073 67.0947C198.327 67.124 198.527 67.1729 198.674 67.2412C198.82 67.3193 198.894 67.4316 198.894 67.5781C198.894 67.7734 198.781 67.915 198.557 68.0029C198.332 68.1006 198.024 68.1494 197.634 68.1494C197.409 68.1494 197.102 68.1445 196.711 68.1348C196.33 68.125 195.925 68.1201 195.495 68.1201C194.577 68.1299 193.767 68.2178 193.063 68.3838C192.36 68.5596 191.74 68.75 191.203 68.9551C190.676 69.1602 190.217 69.3457 189.826 69.5117C189.445 69.6875 189.118 69.7754 188.845 69.7754C188.62 69.7754 188.508 69.6826 188.508 69.4971C188.508 69.3799 188.562 69.2773 188.669 69.1895C188.786 69.1113 188.952 69.0234 189.167 68.9258C189.606 68.75 189.973 68.5645 190.266 68.3691C190.559 68.1738 190.798 67.9443 190.983 67.6807C191.169 67.417 191.301 67.0947 191.379 66.7139C191.467 66.3428 191.521 65.8838 191.54 65.3369C191.56 64.8779 191.569 64.3115 191.569 63.6377C191.569 62.9639 191.569 62.2168 191.569 61.3965C191.569 60.5859 191.564 59.7266 191.555 58.8184C191.555 57.9102 191.55 56.9971 191.54 56.0791C191.54 55.1611 191.535 54.2529 191.525 53.3545C191.516 52.4561 191.506 51.6113 191.496 50.8203C191.486 50.0293 191.472 49.3164 191.452 48.6816C191.442 48.0371 191.433 47.5049 191.423 47.085C191.413 46.8408 191.389 46.6406 191.35 46.4844C191.311 46.3281 191.247 46.2061 191.159 46.1182C191.071 46.0303 190.949 45.9717 190.793 45.9424C190.646 45.9033 190.456 45.8838 190.222 45.8838C190.017 45.8838 189.787 45.8936 189.533 45.9131C189.279 45.9326 189.025 45.957 188.771 45.9863C188.527 46.0059 188.303 46.0254 188.098 46.0449C187.883 46.0645 187.712 46.0742 187.585 46.0742C187.419 46.0742 187.282 46.0498 187.175 46.001C187.067 45.9521 187.014 45.8643 187.014 45.7373C187.014 45.6006 187.072 45.5078 187.189 45.459C187.307 45.4004 187.478 45.3564 187.702 45.3271C188.063 45.2783 188.415 45.2393 188.757 45.21C189.108 45.1709 189.523 45.1074 190.002 45.0195C190.412 44.9512 190.734 44.8145 190.969 44.6094C191.203 44.3945 191.389 44.1406 191.525 43.8477C191.662 43.5449 191.76 43.2129 191.818 42.8516C191.877 42.4805 191.936 42.0947 191.994 41.6943C192.111 40.8154 192.253 39.9512 192.419 39.1016C192.585 38.2422 192.79 37.4268 193.034 36.6553C193.288 35.874 193.576 35.1562 193.898 34.502C194.23 33.8379 194.616 33.2666 195.056 32.7881C195.495 32.3096 195.988 31.9336 196.535 31.6602C197.092 31.3867 197.717 31.25 198.41 31.25ZM202.116 41.5039C202.692 41.5039 203.151 41.6553 203.493 41.958C203.835 42.2607 204.006 42.6904 204.006 43.2471C204.006 43.6182 203.947 43.9307 203.83 44.1846C203.713 44.4287 203.562 44.6289 203.376 44.7852C203.19 44.9316 202.985 45.0391 202.761 45.1074C202.546 45.166 202.331 45.1953 202.116 45.1953C201.931 45.1953 201.735 45.166 201.53 45.1074C201.325 45.0488 201.135 44.9512 200.959 44.8145C200.783 44.668 200.637 44.4824 200.52 44.2578C200.412 44.0234 200.358 43.7354 200.358 43.3936C200.358 43.0322 200.417 42.7344 200.534 42.5C200.651 42.2559 200.798 42.0605 200.974 41.9141C201.149 41.7676 201.34 41.665 201.545 41.6064C201.75 41.5381 201.94 41.5039 202.116 41.5039ZM204.196 46.3086C204.294 46.3086 204.343 46.4209 204.343 46.6455C204.343 46.792 204.323 47.0361 204.284 47.3779C204.255 47.71 204.216 48.0664 204.167 48.4473C204.089 49.0527 204.011 49.7266 203.933 50.4688C203.854 51.2012 203.776 51.958 203.698 52.7393C203.63 53.5107 203.562 54.2773 203.493 55.0391C203.435 55.8008 203.381 56.5088 203.332 57.1631C203.283 57.8076 203.244 58.3789 203.215 58.877C203.186 59.3652 203.171 59.7266 203.171 59.9609C203.171 60.2637 203.19 60.5127 203.229 60.708C203.269 60.9033 203.317 61.0645 203.376 61.1914C203.435 61.3184 203.498 61.4209 203.566 61.499C203.645 61.5771 203.723 61.6455 203.801 61.7041C203.889 61.7627 203.996 61.8164 204.123 61.8652C204.25 61.9141 204.387 61.9629 204.533 62.0117C204.68 62.0508 204.826 62.085 204.973 62.1143C205.129 62.1436 205.271 62.1631 205.397 62.1729C205.603 62.2119 205.769 62.2412 205.896 62.2607C206.022 62.2803 206.086 62.3438 206.086 62.4512C206.086 62.6465 205.876 62.7441 205.456 62.7441C205.163 62.7441 204.87 62.7246 204.577 62.6855C204.284 62.6367 203.981 62.583 203.669 62.5244C203.366 62.4658 203.049 62.417 202.717 62.3779C202.385 62.3291 202.028 62.3047 201.647 62.3047C201.296 62.3047 200.979 62.3145 200.695 62.334C200.412 62.3535 200.153 62.3779 199.919 62.4072C199.685 62.4365 199.465 62.4609 199.26 62.4805C199.055 62.5 198.85 62.5098 198.645 62.5098C198.479 62.5098 198.327 62.4902 198.19 62.4512C198.054 62.4023 197.985 62.3096 197.985 62.1729C197.985 62.0361 198.059 61.9434 198.205 61.8945C198.361 61.8359 198.518 61.792 198.674 61.7627C198.869 61.7236 199.06 61.6797 199.245 61.6309C199.431 61.582 199.597 61.5088 199.743 61.4111C199.899 61.3037 200.026 61.167 200.124 61.001C200.231 60.8252 200.3 60.6006 200.329 60.3271C200.368 59.79 200.397 59.2432 200.417 58.6865C200.437 58.1299 200.451 57.583 200.461 57.0459C200.471 56.499 200.476 55.9717 200.476 55.4639C200.476 54.9463 200.476 54.4629 200.476 54.0137C200.476 53.4766 200.476 52.9883 200.476 52.5488C200.476 52.0996 200.466 51.7188 200.446 51.4062C200.427 50.9082 200.368 50.5176 200.271 50.2344C200.183 49.9512 200.051 49.7412 199.875 49.6045C199.709 49.4678 199.494 49.3799 199.23 49.3408C198.967 49.292 198.649 49.2529 198.278 49.2236C198.171 49.2041 198.083 49.1699 198.015 49.1211C197.956 49.0723 197.927 48.9941 197.927 48.8867C197.927 48.7012 198.073 48.5938 198.366 48.5645C198.513 48.5547 198.698 48.54 198.923 48.5205C199.147 48.4912 199.406 48.4521 199.699 48.4033C200.002 48.3545 200.329 48.2861 200.681 48.1982C201.032 48.1006 201.403 47.9688 201.794 47.8027C202.224 47.627 202.575 47.4512 202.849 47.2754C203.132 47.0996 203.361 46.9434 203.537 46.8066C203.713 46.6602 203.85 46.543 203.947 46.4551C204.045 46.3574 204.128 46.3086 204.196 46.3086ZM211.564 39.3213C211.809 39.3213 211.931 39.5508 211.931 40.0098C211.931 40.1758 211.926 40.4102 211.916 40.7129C211.916 41.0156 211.911 41.3574 211.901 41.7383C211.892 42.1094 211.882 42.5049 211.872 42.9248C211.872 43.3447 211.872 43.7549 211.872 44.1553C211.872 44.6436 211.877 45.2344 211.887 45.9277C211.896 46.6113 211.906 47.3633 211.916 48.1836C211.936 49.0039 211.955 49.8682 211.975 50.7764C211.994 51.6748 212.014 52.5781 212.033 53.4863C212.053 54.3848 212.072 55.2686 212.092 56.1377C212.121 56.9971 212.146 57.7979 212.165 58.54C212.185 59.2822 212.204 59.9414 212.224 60.5176C212.243 61.0938 212.263 61.5479 212.282 61.8799C212.292 62.124 212.302 62.3877 212.312 62.6709C212.331 62.9541 212.355 63.2373 212.385 63.5205C212.414 63.8037 212.443 64.0771 212.473 64.3408C212.512 64.5947 212.551 64.8145 212.59 65C212.697 65.5469 212.844 65.9766 213.029 66.2891C213.225 66.6016 213.396 66.8311 213.542 66.9775C213.718 67.1631 213.908 67.3242 214.113 67.4609C214.318 67.6074 214.514 67.7393 214.699 67.8564C214.885 67.9736 215.036 68.0859 215.153 68.1934C215.28 68.3105 215.344 68.4277 215.344 68.5449C215.344 68.6328 215.31 68.7109 215.241 68.7793C215.173 68.8574 215.056 68.8965 214.89 68.8965C214.694 68.8965 214.436 68.8379 214.113 68.7207C213.801 68.6035 213.435 68.4619 213.015 68.2959C212.604 68.1299 212.146 67.9492 211.638 67.7539C211.13 67.5586 210.588 67.3828 210.012 67.2266C209.543 67.0996 209.079 66.9873 208.62 66.8896C208.161 66.8018 207.731 66.7285 207.331 66.6699C206.94 66.6113 206.604 66.5625 206.32 66.5234C206.027 66.4844 205.817 66.4551 205.69 66.4355C205.437 66.3867 205.266 66.3184 205.178 66.2305C205.08 66.1523 205.031 66.0498 205.031 65.9229C205.031 65.835 205.061 65.7471 205.119 65.6592C205.178 65.5811 205.305 65.542 205.5 65.542C205.686 65.542 205.969 65.5615 206.35 65.6006C206.721 65.6396 207.121 65.6592 207.551 65.6592C207.785 65.6592 207.971 65.6104 208.107 65.5127C208.254 65.4248 208.366 65.293 208.444 65.1172C208.522 64.9512 208.576 64.7559 208.605 64.5312C208.635 64.3066 208.659 64.0625 208.679 63.7988C208.708 63.1348 208.737 62.3975 208.767 61.5869C208.796 60.7764 208.82 59.9219 208.84 59.0234C208.859 58.1152 208.874 57.1826 208.884 56.2256C208.894 55.2588 208.898 54.292 208.898 53.3252C208.898 52.4756 208.894 51.6309 208.884 50.791C208.874 49.9512 208.859 49.1406 208.84 48.3594C208.83 47.5781 208.815 46.8359 208.796 46.1328C208.776 45.4199 208.752 44.7705 208.723 44.1846C208.703 43.8721 208.654 43.6523 208.576 43.5254C208.508 43.3984 208.415 43.335 208.298 43.335C208.151 43.335 207.961 43.3936 207.727 43.5107C207.492 43.6182 207.253 43.7402 207.009 43.877C206.774 44.0137 206.55 44.1406 206.335 44.2578C206.12 44.3652 205.964 44.4189 205.866 44.4189C205.729 44.4189 205.661 44.3604 205.661 44.2432C205.661 44.1748 205.71 44.1016 205.808 44.0234C205.847 43.9941 205.964 43.9355 206.159 43.8477C206.345 43.75 206.584 43.6133 206.877 43.4375C207.18 43.252 207.521 43.0225 207.902 42.749C208.293 42.4756 208.703 42.1436 209.133 41.7529C209.475 41.4404 209.768 41.1377 210.012 40.8447C210.266 40.5518 210.485 40.293 210.671 40.0684C210.856 39.8438 211.018 39.6631 211.154 39.5264C211.301 39.3896 211.438 39.3213 211.564 39.3213ZM216.691 49.3701C216.613 48.1006 216.545 47.0459 216.486 46.2061C216.428 45.3662 216.345 44.6924 216.237 44.1846C216.14 43.6768 215.998 43.3203 215.812 43.1152C215.627 42.9004 215.373 42.793 215.051 42.793C214.836 42.793 214.611 42.8174 214.377 42.8662C214.143 42.9053 213.957 42.9248 213.82 42.9248C213.723 42.9248 213.635 42.9004 213.557 42.8516C213.488 42.8027 213.454 42.7246 213.454 42.6172C213.454 42.5098 213.493 42.4365 213.571 42.3975C213.649 42.3486 213.742 42.3145 213.85 42.2949C213.996 42.2656 214.177 42.2314 214.392 42.1924C214.606 42.1436 214.855 42.0801 215.139 42.002C215.422 41.9141 215.734 41.8066 216.076 41.6797C216.418 41.5527 216.784 41.3867 217.175 41.1816C217.575 40.9766 217.922 40.7715 218.215 40.5664C218.508 40.3516 218.757 40.1611 218.962 39.9951C219.177 39.8193 219.353 39.6777 219.489 39.5703C219.626 39.4629 219.733 39.4092 219.812 39.4092C219.89 39.4092 219.943 39.4824 219.973 39.6289C220.012 39.7656 220.031 39.9512 220.031 40.1855C220.031 40.8301 220.026 41.5186 220.017 42.251C220.017 42.9834 220.017 43.7354 220.017 44.5068C220.017 45.2783 220.012 46.0596 220.002 46.8506C220.002 47.6318 220.002 48.4033 220.002 49.165C220.002 49.8975 220.017 50.708 220.046 51.5967C220.075 52.4756 220.114 53.374 220.163 54.292C220.212 55.2002 220.275 56.0986 220.354 56.9873C220.432 57.8662 220.515 58.6768 220.603 59.4189C220.69 60.1514 220.788 60.7861 220.896 61.3232C221.003 61.8604 221.115 62.2363 221.232 62.4512C221.398 62.7832 221.643 63.0176 221.965 63.1543C222.287 63.2812 222.683 63.3789 223.151 63.4473C223.356 63.4766 223.527 63.5254 223.664 63.5938C223.801 63.6621 223.869 63.7695 223.869 63.916C223.869 64.043 223.811 64.1504 223.693 64.2383C223.576 64.3262 223.352 64.3701 223.02 64.3701C222.814 64.3701 222.561 64.3604 222.258 64.3408C221.965 64.3213 221.638 64.2969 221.276 64.2676C220.915 64.2383 220.529 64.2139 220.119 64.1943C219.719 64.1748 219.318 64.165 218.918 64.165C218.469 64.165 218.029 64.1846 217.6 64.2236C217.18 64.2529 216.789 64.2871 216.428 64.3262C216.066 64.3652 215.744 64.4043 215.461 64.4434C215.178 64.4727 214.948 64.4873 214.772 64.4873C214.606 64.4873 214.489 64.458 214.421 64.3994C214.353 64.3311 214.318 64.2529 214.318 64.165C214.318 64.0283 214.372 63.9258 214.479 63.8574C214.558 63.8086 214.67 63.7695 214.816 63.7402C214.963 63.7109 215.119 63.6768 215.285 63.6377C215.461 63.5986 215.637 63.5547 215.812 63.5059C215.998 63.4473 216.164 63.3643 216.311 63.2568C216.584 63.0811 216.765 62.8271 216.853 62.4951C216.95 62.1631 216.999 61.7188 216.999 61.1621C216.999 61.0449 216.999 60.7764 216.999 60.3564C216.999 59.9365 216.994 59.4189 216.984 58.8037C216.975 58.1885 216.96 57.4951 216.94 56.7236C216.931 55.9424 216.916 55.1367 216.896 54.3066C216.877 53.4766 216.848 52.6367 216.809 51.7871C216.779 50.9375 216.74 50.1318 216.691 49.3701Z" fill="#252525"/>
</g>
<defs>
<filter id="filter0_d_657_542" x="6.44897" y="14.99" width="30.5132" height="28.0094" filterUnits="userSpaceOnUse" color-interpolation-filters="sRGB">
<feFlood flood-opacity="0" result="BackgroundImageFix"/>
<feColorMatrix in="SourceAlpha" type="matrix" values="0 0 0 0 0 0 0 0 0 0 0 0 0 0 0 0 0 0 127 0" result="hardAlpha"/>
<feOffset dy="4"/>
<feGaussianBlur stdDeviation="2"/>
<feComposite in2="hardAlpha" operator="out"/>
<feColorMatrix type="matrix" values="0 0 0 0 0 0 0 0 0 0 0 0 0 0 0 0 0 0 0.25 0"/>
<feBlend mode="normal" in2="BackgroundImageFix" result="effect1_dropShadow_657_542"/>
<feBlend mode="normal" in="SourceGraphic" in2="effect1_dropShadow_657_542" result="shape"/>
</filter>
<filter id="filter1_d_657_542" x="14.0193" y="29" width="59.9614" height="53" filterUnits="userSpaceOnUse" color-interpolation-filters="sRGB">
<feFlood flood-opacity="0" result="BackgroundImageFix"/>
<feColorMatrix in="SourceAlpha" type="matrix" values="0 0 0 0 0 0 0 0 0 0 0 0 0 0 0 0 0 0 127 0" result="hardAlpha"/>
<feOffset dy="4"/>
<feGaussianBlur stdDeviation="2"/>
<feComposite in2="hardAlpha" operator="out"/>
<feColorMatrix type="matrix" values="0 0 0 0 0 0 0 0 0 0 0 0 0 0 0 0 0 0 0.25 0"/>
<feBlend mode="normal" in2="BackgroundImageFix" result="effect1_dropShadow_657_542"/>
<feBlend mode="normal" in="SourceGraphic" in2="effect1_dropShadow_657_542" result="shape"/>
</filter>
<filter id="filter2_d_657_542" x="16.6174" y="30.5" width="54.7651" height="48.5" filterUnits="userSpaceOnUse" color-interpolation-filters="sRGB">
<feFlood flood-opacity="0" result="BackgroundImageFix"/>
<feColorMatrix in="SourceAlpha" type="matrix" values="0 0 0 0 0 0 0 0 0 0 0 0 0 0 0 0 0 0 127 0" result="hardAlpha"/>
<feOffset dy="4"/>
<feGaussianBlur stdDeviation="2"/>
<feComposite in2="hardAlpha" operator="out"/>
<feColorMatrix type="matrix" values="0 0 0 0 0 0 0 0 0 0 0 0 0 0 0 0 0 0 0.25 0"/>
<feBlend mode="normal" in2="BackgroundImageFix" result="effect1_dropShadow_657_542"/>
<feBlend mode="normal" in="SourceGraphic" in2="effect1_dropShadow_657_542" result="shape"/>
</filter>
<filter id="filter3_d_657_542" x="18" y="31" width="28" height="28" filterUnits="userSpaceOnUse" color-interpolation-filters="sRGB">
<feFlood flood-opacity="0" result="BackgroundImageFix"/>
<feColorMatrix in="SourceAlpha" type="matrix" values="0 0 0 0 0 0 0 0 0 0 0 0 0 0 0 0 0 0 127 0" result="hardAlpha"/>
<feOffset dy="4"/>
<feGaussianBlur stdDeviation="2"/>
<feComposite in2="hardAlpha" operator="out"/>
<feColorMatrix type="matrix" values="0 0 0 0 0 0 0 0 0 0 0 0 0 0 0 0 0 0 0.25 0"/>
<feBlend mode="normal" in2="BackgroundImageFix" result="effect1_dropShadow_657_542"/>
<feBlend mode="normal" in="SourceGraphic" in2="effect1_dropShadow_657_542" result="shape"/>
</filter>
<filter id="filter4_d_657_542" x="42" y="31" width="28" height="28" filterUnits="userSpaceOnUse" color-interpolation-filters="sRGB">
<feFlood flood-opacity="0" result="BackgroundImageFix"/>
<feColorMatrix in="SourceAlpha" type="matrix" values="0 0 0 0 0 0 0 0 0 0 0 0 0 0 0 0 0 0 127 0" result="hardAlpha"/>
<feOffset dy="4"/>
<feGaussianBlur stdDeviation="2"/>
<feComposite in2="hardAlpha" operator="out"/>
<feColorMatrix type="matrix" values="0 0 0 0 0 0 0 0 0 0 0 0 0 0 0 0 0 0 0.25 0"/>
<feBlend mode="normal" in2="BackgroundImageFix" result="effect1_dropShadow_657_542"/>
<feBlend mode="normal" in="SourceGraphic" in2="effect1_dropShadow_657_542" result="shape"/>
</filter>
<filter id="filter5_d_657_542" x="49.4958" y="15.4169" width="30.5361" height="27.5804" filterUnits="userSpaceOnUse" color-interpolation-filters="sRGB">
<feFlood flood-opacity="0" result="BackgroundImageFix"/>
<feColorMatrix in="SourceAlpha" type="matrix" values="0 0 0 0 0 0 0 0 0 0 0 0 0 0 0 0 0 0 127 0" result="hardAlpha"/>
<feOffset dy="4"/>
<feGaussianBlur stdDeviation="2"/>
<feComposite in2="hardAlpha" operator="out"/>
<feColorMatrix type="matrix" values="0 0 0 0 0 0 0 0 0 0 0 0 0 0 0 0 0 0 0.25 0"/>
<feBlend mode="normal" in2="BackgroundImageFix" result="effect1_dropShadow_657_542"/>
<feBlend mode="normal" in="SourceGraphic" in2="effect1_dropShadow_657_542" result="shape"/>
</filter>
<filter id="filter6_d_657_542" x="74" y="31.25" width="153.869" height="51.0225" filterUnits="userSpaceOnUse" color-interpolation-filters="sRGB">
<feFlood flood-opacity="0" result="BackgroundImageFix"/>
<feColorMatrix in="SourceAlpha" type="matrix" values="0 0 0 0 0 0 0 0 0 0 0 0 0 0 0 0 0 0 127 0" result="hardAlpha"/>
<feOffset dy="4"/>
<feGaussianBlur stdDeviation="2"/>
<feComposite in2="hardAlpha" operator="out"/>
<feColorMatrix type="matrix" values="0 0 0 0 0 0 0 0 0 0 0 0 0 0 0 0 0 0 0.25 0"/>
<feBlend mode="normal" in2="BackgroundImageFix" result="effect1_dropShadow_657_542"/>
<feBlend mode="normal" in="SourceGraphic" in2="effect1_dropShadow_657_542" result="shape"/>
</filter>
<linearGradient id="paint0_linear_657_542" x1="45.5" y1="134" x2="44" y2="17" gradientUnits="userSpaceOnUse">
<stop stop-color="#787878"/>
<stop offset="1" stop-color="#787878" stop-opacity="0"/>
</linearGradient>
</defs>
</svg>
